<?xml version="1.0" encoding="UTF-8" standalone="no"?>
<svg
   xmlns:dc="http://purl.org/dc/elements/1.1/"
   xmlns:cc="http://creativecommons.org/ns#"
   xmlns:rdf="http://www.w3.org/1999/02/22-rdf-syntax-ns#"
   xmlns:svg="http://www.w3.org/2000/svg"
   xmlns="http://www.w3.org/2000/svg"
   viewBox="0 0 960 158.64"
   height="158.64"
   width="960"
   xml:space="preserve"
   id="svg2"
   version="1.1"><metadata
     id="metadata8"><rdf:RDF><cc:Work
         rdf:about=""><dc:format>image/svg+xml</dc:format><dc:type
           rdf:resource="http://purl.org/dc/dcmitype/StillImage" /></cc:Work></rdf:RDF></metadata><defs
     id="defs6"><clipPath
       id="clipPath18"
       clipPathUnits="userSpaceOnUse"><path
         id="path16"
         d="M 0,118.98 H 720 V 0 H 0 Z" /></clipPath></defs><g
     transform="matrix(1.3333333,0,0,-1.3333333,0,158.64)"
     id="g10"><g
       id="g12"><g
         clip-path="url(#clipPath18)"
         id="g14"><g
           transform="translate(512.6875,90.1689)"
           id="g20"><path
             id="path22"
             style="fill:#100f0d;fill-opacity:1;fill-rule:nonzero;stroke:none"
             d="m 0,0 2.562,-6.176 -6.178,-2.483 c -4.304,-1.829 -6.636,-4.981 -6.995,-9.458 0.173,-1.469 0.524,-2.916 1.056,-4.341 L 1.311,-47.657 c 0.949,-2.073 1.422,-4.377 1.422,-6.91 0,-3.498 -1.089,-6.648 -3.271,-9.448 -2.181,-2.8 -4.899,-4.783 -8.151,-5.949 l -5.831,-2.203 -2.656,6.37 5.948,2.03 c 2.177,0.705 3.901,1.893 5.169,3.563 1.27,1.67 1.905,3.549 1.905,5.637 0,1.626 -0.296,3.159 -0.887,4.599 l -10.88,24.941 c -0.893,2.231 -1.428,4.534 -1.6,6.91 0.086,3.483 1.134,6.632 3.143,9.447 2.009,2.814 4.764,4.913 8.264,6.295 z" /></g><g
           transform="translate(534.0791,26.4023)"
           id="g24"><path
             id="path26"
             style="fill:#100f0d;fill-opacity:1;fill-rule:nonzero;stroke:none"
             d="M 0,0 H 0.172 C 2.807,0 4.56,0.839 5.431,2.518 6.301,4.196 6.737,6.75 6.737,10.179 V 13.81 C 6.708,14.86 6.654,16.377 6.575,18.358 6.496,20.339 6.266,21.999 5.884,23.339 5.502,24.679 4.829,25.771 3.865,26.613 2.9,27.456 1.555,27.878 -0.173,27.878 -2.318,27.719 -3.945,26.163 -5.054,23.21 -6.162,20.256 -6.716,17.036 -6.716,13.55 -6.515,4.517 -4.276,0 0,0 m 6.197,-2.915 c -2.015,-3.124 -4.55,-4.686 -7.601,-4.686 -2.706,0.101 -4.902,1.184 -6.586,3.249 -1.685,2.067 -2.894,4.647 -3.628,7.743 -0.735,3.094 -1.137,6.355 -1.209,9.781 0,3.786 0.425,7.375 1.274,10.765 0.849,3.39 2.159,6.158 3.93,8.302 1.77,2.145 3.959,3.283 6.564,3.412 2.491,0 4.557,-0.94 6.198,-2.821 l 1.404,-1.507 v 3.076 h 6.024 V -6.716 h -6.37 z" /></g><path
           id="path28"
           style="fill:#100f0d;fill-opacity:1;fill-rule:nonzero;stroke:none"
           d="m 561.675,19.859 h -6.284 v 73.937 h 6.284 z" /><g
           transform="translate(576.6182,40.2012)"
           id="g30"><path
             id="path32"
             style="fill:#100f0d;fill-opacity:1;fill-rule:nonzero;stroke:none"
             d="m 0,0 c 0,-3.686 0.532,-6.907 1.598,-9.664 1.065,-2.757 3.008,-4.135 5.831,-4.135 4.837,0 7.255,4.837 7.255,14.511 0,3.873 -0.454,6.997 -1.361,9.372 -0.906,2.375 -2.872,3.642 -5.894,3.801 C 2.735,13.885 0.26,9.256 0,0 m 7.429,22.112 c 3.684,0 6.55,-1.019 8.593,-3.056 2.044,-2.037 3.419,-4.581 4.125,-7.633 0.706,-3.053 1.094,-6.622 1.166,-10.711 0,-6.176 -0.968,-11.376 -2.904,-15.602 -1.936,-4.224 -5.474,-6.338 -10.613,-6.338 -3.787,0 -6.731,1.048 -8.832,3.143 -2.103,2.095 -3.517,4.722 -4.243,7.882 -0.728,3.159 -1.091,6.676 -1.091,10.548 0,14.511 4.599,21.767 13.799,21.767" /></g><g
           transform="translate(628.9834,44.7139)"
           id="g34"><path
             id="path36"
             style="fill:#100f0d;fill-opacity:1;fill-rule:nonzero;stroke:none"
             d="m 0,0 v -24.682 h -6.024 v 22.299 1.253 c 0,7.131 -1.743,10.696 -5.226,10.696 -4.953,0 -7.429,-3.803 -7.429,-11.409 v -22.839 h -6.197 v 41.849 h 6.197 v -3.983 c 0.893,1.22 2.095,2.217 3.607,2.993 1.511,0.775 3.08,1.163 4.707,1.163 C -3.455,17.181 0,11.401 0,0" /></g><g
           transform="translate(638.0967,25.0488)"
           id="g38"><path
             id="path40"
             style="fill:#100f0d;fill-opacity:1;fill-rule:nonzero;stroke:none"
             d="M 0,0 C 0.938,0 1.663,-0.299 2.174,-0.896 2.685,-1.492 2.939,-2.227 2.939,-3.099 2.939,-3.934 2.682,-4.643 2.167,-5.226 1.651,-5.809 0.929,-6.101 0,-6.101 c -0.938,0 -1.673,0.299 -2.201,0.896 -0.529,0.597 -0.794,1.299 -0.794,2.106 0,0.854 0.265,1.583 0.794,2.19 C -1.673,-0.304 -0.938,0 0,0" /></g><g
           transform="translate(655.4443,24.8281)"
           id="g42"><path
             id="path44"
             style="fill:#100f0d;fill-opacity:1;fill-rule:nonzero;stroke:none"
             d="m 0,0 1.532,-4.403 c -0.984,-0.985 -2.231,-1.477 -3.74,-1.477 -2.088,0 -3.779,0.677 -5.071,2.029 -1.293,1.353 -2.211,3.073 -2.754,5.162 -0.543,2.088 -0.814,4.329 -0.814,6.72 0,2.337 0.279,4.523 0.835,6.556 0.557,2.033 1.491,3.71 2.801,5.03 1.312,1.32 3.016,1.999 5.113,2.036 1.482,0 2.692,-0.451 3.63,-1.352 L 0,16.009 c -0.45,0.303 -0.757,0.499 -0.917,0.586 -0.161,0.088 -0.514,0.154 -1.056,0.2 -1.601,0 -2.747,-0.876 -3.436,-2.629 C -6.1,12.413 -6.463,10.368 -6.5,8.031 c 0,-2.383 0.315,-4.448 0.945,-6.196 0.631,-1.748 1.746,-2.622 3.347,-2.622 0.396,0 0.706,0.032 0.932,0.097 0.225,0.064 0.437,0.161 0.634,0.29 0.199,0.129 0.413,0.261 0.642,0.4" /></g><g
           transform="translate(664.2637,32.8594)"
           id="g46"><path
             id="path48"
             style="fill:#100f0d;fill-opacity:1;fill-rule:nonzero;stroke:none"
             d="m 0,0 c 0,-2.355 0.34,-4.414 1.021,-6.176 0.681,-1.761 1.923,-2.642 3.726,-2.642 3.092,0 4.638,3.091 4.638,9.274 0,2.475 -0.29,4.472 -0.87,5.989 C 7.936,7.964 6.68,8.773 4.747,8.874 1.748,8.874 0.165,5.916 0,0 m 4.747,14.133 c 2.356,0 4.187,-0.652 5.493,-1.953 1.306,-1.302 2.185,-2.928 2.636,-4.879 0.451,-1.95 0.699,-4.233 0.745,-6.845 0,-3.947 -0.619,-7.271 -1.856,-9.972 -1.238,-2.7 -3.498,-4.049 -6.784,-4.049 -2.419,0 -4.3,0.669 -5.644,2.007 -1.343,1.339 -2.247,3.018 -2.712,5.037 -0.464,2.02 -0.696,4.267 -0.696,6.743 0,9.273 2.939,13.911 8.818,13.911" /></g><g
           transform="translate(697.7305,33.4258)"
           id="g50"><path
             id="path52"
             style="fill:#100f0d;fill-opacity:1;fill-rule:nonzero;stroke:none"
             d="M 0,0 V -13.677 H -3.851 V 0 1.753 c 0,4.029 -0.887,6.178 -2.663,6.444 -3.689,0 -5.534,-2.58 -5.534,-7.742 v -14.132 h -3.85 v 26.843 h 3.85 v -2.539 c 1.288,1.775 2.985,2.663 5.093,2.663 1.141,0 2.269,-0.302 3.388,-0.904 1.118,-0.603 2.095,-1.378 2.932,-2.325 0.488,0.947 1.279,1.741 2.374,2.38 1.095,0.64 2.286,0.959 3.574,0.959 1.684,0 3.152,-0.492 4.403,-1.476 1.04,-0.828 1.704,-1.877 1.994,-3.147 C 12,7.508 12.145,5.842 12.145,3.781 V -13.566 H 8.184 V 1.697 2.663 c 0,1.619 -0.189,2.91 -0.566,3.871 C 7.241,7.496 6.432,8.05 5.189,8.197 3.652,8.197 2.498,7.768 1.726,6.907 0.952,6.047 0.467,5.083 0.27,4.016 0.071,2.948 -0.06,1.684 -0.124,0.221 -0.069,0.175 -0.034,0.131 -0.021,0.09 -0.007,0.048 0,0.019 0,0" /></g><g
           transform="translate(89.4331,24.0566)"
           id="g54"><path
             id="path56"
             style="fill:#100f0d;fill-opacity:1;fill-rule:nonzero;stroke:none"
             d="m 0,0 1.544,-2.988 -0.1,-0.996 -0.597,-0.1 -0.449,0.149 -0.597,0.449 -0.448,0.846 -0.15,0.249 -0.996,0.349 -0.149,0.498 -0.847,0.946 -1.444,0.449 h -0.698 l -0.797,0.348 -0.049,0.15 -0.399,0.149 -0.697,0.598 -0.697,0.249 -0.399,0.299 -0.249,0.149 -0.199,0.349 -0.498,0.398 -0.199,0.249 -0.299,0.648 -0.647,1.643 -0.697,1.046 -0.15,0.847 -0.348,0.548 -0.498,1.095 -0.05,0.697 -0.947,1.842 -0.647,1.943 -0.1,1.693 -0.348,0.647 -0.349,3.935 h -0.05 l -0.199,0.398 v 0.698 l -0.299,2.042 -1.444,-1.196 -0.149,-0.149 -0.15,-0.647 -0.099,-0.349 -1.793,-3.835 -0.947,-1.395 h -0.249 l -0.099,-0.099 -0.698,-1.743 -1.194,-1.445 -0.349,-0.946 -0.548,-0.349 -0.398,-0.547 -0.449,-0.548 -0.298,-0.697 -0.897,-0.597 -0.149,-0.199 -0.05,-0.299 V 7.172 h -0.249 l -0.847,-0.648 -0.249,-0.498 -0.349,-0.298 -1.394,-1.046 -1.295,-0.449 -1.046,-1.095 -1.544,-1.046 -0.249,0.199 -0.199,-0.1 -1.643,0.449 -0.349,-0.05 -0.05,0.249 h -0.149 l -0.647,1.046 -0.399,1.743 0.299,1.992 -0.149,1.792 0.498,2.192 0.547,0.498 -0.049,0.448 h -0.2 l 0.299,2.54 0.299,0.249 -0.05,0.149 0.399,0.349 0.149,0.249 -0.349,0.946 0.1,0.15 0.249,0.697 0.996,2.64 -0.15,0.597 0.299,0.249 1.295,4.283 0.249,0.748 0.15,0.348 0.249,0.498 0.149,0.15 v 0.448 l 0.249,0.348 0.299,0.897 0.697,0.996 0.05,0.747 0.299,0.498 0.099,0.648 1.345,3.137 0.199,0.797 0.249,0.398 0.15,0.747 0.149,0.199 0.249,0.449 0.747,1.992 -0.249,0.448 -0.348,0.298 -0.449,-0.049 -0.946,-1.793 -0.349,-1.145 -2.042,-2.639 -0.348,-0.698 -0.1,-0.448 -0.747,-1.245 -0.1,-0.249 -0.398,-0.598 -0.398,-0.05 0.199,-0.249 -2.042,-2.938 -0.697,-1.245 -0.349,-0.05 -0.448,-0.548 -1.942,-3.287 -0.697,-1.693 -1.943,-2.491 -0.05,-0.099 -0.498,-0.648 -0.199,-0.498 V 17.68 l -1.893,-2.59 -0.249,0.199 -0.348,-0.05 0.099,-0.199 h 0.15 l -0.1,-0.498 -0.299,-0.598 -0.149,-0.348 -0.548,-0.249 -0.348,-0.299 -0.15,-0.249 -0.149,-0.548 -2.042,-3.236 0.1,-0.2 -1.644,-1.593 -0.149,-0.548 -0.897,-0.847 -0.448,-0.05 -0.249,-0.149 -0.398,-1.345 -0.399,-0.249 -0.099,-0.299 -0.399,-0.747 -0.697,-0.448 0.05,-0.349 -0.299,-0.298 -0.299,-0.449 -1.693,-1.942 h -0.2 l -0.149,-0.349 -0.398,-0.597 -0.299,0.199 -0.15,-0.05 -0.348,-0.946 -0.15,-0.249 h -0.299 l -0.298,-0.1 -0.2,-0.249 -0.298,-0.349 -0.449,-0.298 -1.394,-0.698 h -0.199 l -0.448,-0.199 -0.15,-0.05 -0.298,0.15 -0.1,0.249 -0.249,0.498 -0.05,0.348 0.498,0.399 0.199,0.598 0.249,1.195 0.399,0.249 0.199,0.598 0.647,0.846 1.893,4.632 0.448,0.697 0.249,0.399 0.498,0.348 0.946,2.689 3.337,5.678 -0.05,0.548 1.943,3.785 h 0.199 v 0.448 l 0.349,0.1 -0.1,0.298 0.697,1.594 h 0.249 l 3.337,6.325 0.747,1.196 0.199,0.298 0.697,1.594 0.1,0.399 0.199,0.547 0.299,1.495 0.996,0.546 0.199,1.246 0.249,0.399 0.349,0.697 0.199,0.299 0.448,0.946 1.096,2.44 -0.149,0.149 0.199,0.399 1.195,2.839 -0.149,0.199 0.846,1.743 0.399,0.398 -0.199,0.249 1.444,5.778 v 0.398 l 0.1,0.199 -0.1,1.394 0.1,0.449 -0.1,0.597 0.199,0.399 -0.846,2.39 -0.997,0.897 -1.045,0.199 -1.694,-0.149 -0.797,-0.797 h -0.498 l -0.249,-0.1 -0.299,-0.199 -1.045,-0.398 -0.1,-0.2 -0.448,-0.448 -0.498,-0.299 -0.399,-0.149 -0.697,-0.498 -0.149,-0.249 -0.548,-0.498 -3.088,-2.191 -0.548,-0.299 -0.398,-0.249 -0.398,-0.199 -0.15,-0.498 -1.145,-0.399 -1.544,-1.394 -0.1,-0.349 -0.448,-0.448 -0.598,-0.648 -0.299,-0.199 -1.942,-1.643 -0.249,-0.2 -0.1,-0.199 -0.896,-0.597 v -0.399 l -0.299,-0.249 -1.643,-1.145 -0.05,-0.15 -0.249,-0.598 -0.598,-0.498 -0.547,-0.647 -0.598,-0.647 -0.398,-0.548 -0.648,-0.348 -0.548,-1.096 -0.398,-0.1 v -0.448 -0.299 l -0.498,-0.498 -1.245,-0.598 -0.15,0.1 -2.49,-3.287 -1.146,-1.842 -0.647,-1.594 -0.249,-0.05 -0.648,-0.847 -0.149,-0.149 -0.349,-0.448 -0.348,-1.494 -0.846,-1.445 -0.1,-1.295 -0.249,-0.597 -0.1,-0.2 -0.398,-0.398 -0.448,-0.697 -0.05,-0.249 -0.448,-0.299 0.249,-3.038 -0.399,-3.237 -0.398,-0.15 -0.1,0.299 -0.896,0.398 -0.2,0.548 -0.249,0.249 -0.498,1.594 -0.099,0.249 -0.199,0.149 -0.299,0.2 -0.797,1.145 -0.15,1.494 0.548,0.15 0.2,0.249 -0.499,0.299 0.648,1.693 2.839,4.931 0.548,0.448 0.099,0.398 0.797,0.747 1.245,1.793 0.05,0.05 0.547,0.598 0.349,0.498 1.743,2.888 0.897,0.897 0.348,0.448 0.598,0.697 0.249,0.249 0.847,1.245 5.428,5.677 0.299,0.2 0.1,0.199 0.299,0.299 0.099,0.299 0.349,0.149 0.597,0.498 1.793,1.544 1.096,1.494 1.643,1.096 0.498,0.348 0.548,0.399 0.598,0.597 0.448,0.299 0.498,0.398 3.835,2.939 0.399,0.149 0.796,0.598 1.295,0.797 h 0.299 l 0.498,0.299 0.149,0.149 h 0.199 l 0.1,0.199 4.333,2.241 0.05,0.15 0.498,0.099 -0.1,-0.249 h 0.249 l -0.099,0.399 0.298,0.099 0.299,0.05 0.2,0.1 0.597,0.299 2.839,0.946 1.892,-0.249 1.146,-0.598 0.099,-0.149 h 0.15 v -0.349 l 0.199,-0.099 h 0.398 l 0.349,-0.548 0.448,-0.15 0.05,-0.448 0.398,-0.299 0.349,-1.245 0.249,-0.647 v -0.249 l 0.299,-1.594 -0.897,-3.536 -0.249,-0.498 -0.199,-0.05 0.15,-0.896 -0.05,-0.399 -0.249,-0.348 -0.448,-0.349 0.099,-0.747 -1.046,-2.689 -0.199,-1.046 -0.1,-0.15 -0.149,-0.249 -0.747,-1.095 -0.697,-1.993 -1.793,-2.888 -0.249,-1.195 -1.046,-2.092 -0.548,-0.697 -0.398,-1.096 -0.299,-0.697 -0.05,-0.199 -0.697,-0.946 -0.697,-1.693 -1.494,-2.491 -0.2,-0.398 -0.348,-0.249 V 27.69 l -4.034,-7.57 -0.299,-0.299 -0.299,-0.697 -0.448,-0.747 -0.498,-0.648 -0.149,-0.398 -3.088,-5.727 -0.299,-0.748 v -0.149 -0.149 l 0.399,-0.548 1.145,0.946 1.743,2.64 4.383,5.926 0.199,0.449 0.249,0.299 0.05,0.199 0.099,0.05 3.885,5.827 0.149,0.149 0.299,0.249 1.594,1.992 1.345,2.341 0.249,0.249 0.149,0.448 0.597,0.847 0.349,0.349 0.099,0.249 2.042,3.286 0.2,0.05 0.199,0.15 0.1,0.348 0.348,0.199 4.433,6.176 0.249,0.149 0.398,0.1 1.245,1.643 0.548,0.449 0.299,0.249 1.096,0.547 0.697,0.648 0.348,0.149 0.448,0.299 0.399,0.199 0.448,0.598 0.697,0.1 0.648,0.448 0.249,0.199 h 0.249 l 0.299,-0.05 0.249,-0.199 0.099,-0.249 v -0.05 l -0.049,-1.295 -0.499,-1.145 -0.249,-0.946 -0.149,-0.598 -0.199,-0.349 -0.996,-2.141 -0.349,-0.449 -0.05,-0.199 -0.05,-0.299 -0.049,-0.448 -0.249,-0.597 -3.486,-7.42 -0.1,-0.15 -0.199,-0.598 -0.199,-0.796 -0.199,-0.349 -0.15,-0.349 -1.046,-2.938 -0.498,-0.847 -0.099,-0.448 -0.399,-0.548 -0.05,-0.149 v -0.2 l 0.05,-0.199 -0.099,-0.249 -0.25,-0.398 -0.099,-0.847 -0.399,-0.747 -0.199,-0.448 -0.199,-0.797 0.149,-0.598 -0.547,-2.789 -0.797,-2.54 -0.249,-0.199 V 14.99 l -0.1,-2.739 v -0.697 l -0.149,-0.249 0.099,-2.539 0.299,-0.996 0.498,-0.499 0.199,-0.049 0.548,-0.05 0.399,0.349 0.249,0.298 0.049,0.2 2.192,2.638 0.996,0.847 0.199,0.747 0.548,0.647 0.548,0.698 0.548,0.249 -0.15,0.348 0.2,0.698 0.249,1.195 1.294,0.847 -0.299,0.199 -0.05,0.299 0.797,0.846 1.395,2.789 0.896,3.537 0.249,0.398 0.548,2.142 0.946,1.245 0.747,1.693 0.2,0.149 0.099,0.1 0.1,0.1 h 0.199 0.199 l 1.295,0.647 2.291,1.893 1.445,0.249 0.149,-0.05 0.796,-0.648 v -0.199 l 0.15,-0.398 v -7.072 l 0.348,-1.594 0.25,-3.138 0.597,-3.138 0.05,-0.049 0.1,-0.2 -0.15,-0.398 0.1,-0.299 0.249,-0.697 0.249,-0.548 0.946,-4.582 0.648,-0.946 0.697,-2.639 0.996,-2.142 0.996,-1.444 0.05,-0.697 0.249,-0.05 0.099,-0.946 0.349,-0.349 0.548,-0.548 0.199,-0.149 z" /></g><g
           transform="translate(99.478,50.7256)"
           id="g58"><path
             id="path60"
             style="fill:#100f0d;fill-opacity:1;fill-rule:nonzero;stroke:none"
             d="M 0,0 0.729,-0.66 0.452,-0.834 0.382,-0.66 H 0.278 l -0.521,-0.972 -0.104,-0.035 -0.07,-0.173 0.035,-0.243 0.174,-0.694 -0.069,-0.382 -0.278,-0.868 0.034,-0.312 -0.104,-0.66 -0.243,-2.464 0.243,-1.84 -0.173,-0.799 0.173,-1.804 -0.034,-0.972 -0.139,-0.035 h -0.174 v 0.174 l -0.59,0.867 0.243,1.042 -0.104,0.312 v 0.07 l -0.243,1.041 -0.035,0.174 0.07,0.312 0.139,0.59 v 1.007 L -1.18,-0.556 -1.215,0.902 -1.319,1.249 -1.388,1.492 -1.527,1.7 -1.805,1.77 -2.083,1.735 -2.291,1.631 -2.534,1.492 -3.228,1.145 -3.888,1.562 -4.339,2.151 -4.582,2.464 -4.755,2.568 v 0.208 l -0.625,1.528 0.417,1.353 2.742,1.528 0.902,0.208 1.042,-1.18 0.138,-0.73 0.833,-1.7 L 0.521,3.332 -0.104,2.707 -0.382,2.221 V 1.318 L -0.035,0.59 Z m -0.486,-24.333 0.069,-0.174 -0.381,-2.29 -0.174,-2.257 -1.319,-0.555 -2.013,-0.416 -0.174,0.034 h -0.173 l -0.07,0.347 -0.347,2.153 -0.139,0.659 v 0.139 0.417 l -0.104,0.936 0.104,0.243 h -0.104 l -0.104,1.84 -0.034,0.174 0.104,0.139 -0.174,0.138 0.174,1.32 -0.104,0.138 -0.105,0.487 0.035,1.179 -0.312,4.582 0.173,1.18 -0.138,0.522 v 0.242 l -0.07,0.139 0.174,2.187 0.069,0.416 -0.069,0.382 -0.174,1.632 0.243,0.728 v 3.957 l -0.069,0.313 0.138,0.417 0.451,0.416 1.181,0.555 0.139,0.035 0.138,0.035 0.348,-0.07 0.971,0.139 0.347,-2.117 -0.208,-3.055 0.104,-0.556 -0.243,-1.249 -0.034,-1.458 v -0.659 l -0.104,-0.417 0.138,-1.874 -0.346,-1.527 0.034,-1.84 0.347,-0.277 0.104,0.034 0.486,0.174 0.486,0.034 0.313,0.382 0.104,0.521 0.208,0.139 0.173,-0.139 0.209,-0.417 -0.174,-1.458 0.07,-2.152 -0.278,-1.943 0.104,-0.382 -0.035,-1.666 -0.208,-0.382 0.104,-0.208 z" /></g><g
           transform="translate(111.7661,37.5693)"
           id="g62"><path
             id="path64"
             style="fill:#100f0d;fill-opacity:1;fill-rule:nonzero;stroke:none"
             d="m 0,0 -0.104,0.382 -0.66,-0.139 -0.833,-0.764 -0.382,-0.659 -0.069,-0.138 -0.174,-0.313 -0.243,-0.035 -1.527,-2.464 -0.139,-0.799 -0.416,-0.416 -0.66,-2.603 -0.104,-1.076 0.451,-1.458 -0.139,-0.487 0.139,-0.416 0.417,0.105 0.173,-0.105 0.382,0.243 0.035,0.104 0.312,1.042 -0.208,0.034 0.104,0.348 0.174,0.728 v 0.382 l 0.173,0.799 0.069,0.347 0.07,0.451 1.18,3.262 0.243,0.382 0.139,0.313 0.035,0.035 0.347,0.659 0.347,0.729 0.278,0.625 0.173,0.208 z m 17.008,-2.638 0.555,0.139 -0.52,-2.291 -0.104,-0.243 -0.243,-0.382 v -0.104 l -0.555,-0.763 -0.105,-0.348 -0.139,-0.173 -0.173,-0.451 -1.111,-1.562 -0.416,-0.59 -0.521,-0.348 -0.278,-0.693 -1.25,-1.285 -0.312,-0.416 -0.208,-0.174 -0.243,-0.208 -1.284,-0.903 -0.556,-0.66 -2.291,-1.527 -3.297,-1.354 -0.174,-0.138 -0.451,-0.174 -0.625,0.035 -2.082,-0.174 -1.701,0.521 -1.354,1.007 -0.07,0.104 -0.555,0.451 -0.347,-0.035 -1.423,0.313 -0.451,0.52 -0.139,0.035 -0.486,0.695 -0.416,0.312 -0.14,0.173 -0.173,0.035 -0.069,0.243 -0.105,0.173 -0.416,2.569 0.278,1.111 -0.174,0.659 0.139,0.243 0.416,1.875 0.868,1.388 -0.035,0.104 0.104,0.208 0.14,0.382 0.416,0.694 0.173,0.279 0.278,0.416 0.139,0.312 0.556,0.625 0.52,1.146 0.069,0.173 0.244,0.417 0.693,0.833 0.348,0.277 0.277,0.243 0.486,0.799 2.187,2.36 0.07,0.139 0.312,0.243 1.701,1.944 3.471,2.985 2.534,1.77 2.985,1.458 1.215,0.104 0.069,-0.347 L 13.086,11.524 12.496,9.823 11.281,9.754 9.615,8.921 9.129,8.262 8.365,8.054 6.838,7.012 6.074,6.457 5.936,6.387 5.449,5.936 5.067,5.554 4.721,5.138 3.61,3.854 1.805,1.284 1.388,0.799 1.25,0.278 0.659,-0.416 -1.285,-5.067 -1.909,-8.191 V -8.99 l 0.347,-2.499 -0.105,-0.07 -0.034,-0.173 0.104,-0.278 0.104,-0.104 0.243,0.035 0.208,-0.139 0.244,-0.59 0.486,-0.66 0.729,-0.52 0.589,-0.243 0.278,-0.313 0.937,-0.069 1.25,0.174 v -0.07 l 0.174,-0.069 h 0.173 l 0.208,0.069 h 0.139 l 0.243,-0.104 0.868,0.347 1.111,0.173 1.839,0.938 1.875,1.493 1.006,0.763 0.104,0.104 0.313,0.243 1.319,1.736 0.104,0.138 0.174,0.174 0.208,0.174 0.972,0.867 0.52,1.076 1.458,1.979 0.278,0.52 0.139,0.279 z" /></g><g
           transform="translate(157.4106,22.4707)"
           id="g66"><path
             id="path68"
             style="fill:#100f0d;fill-opacity:1;fill-rule:nonzero;stroke:none"
             d="M 0,0 0.59,-0.556 0.208,-1.111 0,-1.319 -0.243,-1.424 -0.59,-1.493 -0.868,-1.666 -1.493,-2.222 -3.471,-2.43 l -0.556,0.242 -1.631,1.355 -0.174,0.485 -0.555,0.521 -0.174,0.243 -0.208,0.069 -0.694,1.494 -0.139,0.867 -0.521,0.382 -0.173,0.381 -0.174,0.036 -0.659,4.408 -0.243,0.763 -0.209,5.762 0.14,0.348 -0.105,0.277 -0.069,0.139 v 0.937 l 0.208,1.146 -0.347,2.082 0.035,1.978 -0.451,0.071 -0.104,-0.105 -0.521,-1.111 -0.799,-2.846 -0.034,-0.764 -0.799,-2.637 -0.729,-3.124 -0.242,-2.5 -0.521,-1.075 -0.243,-1.563 -0.868,-2.256 -0.417,-0.66 -0.486,-1.249 -0.138,-0.174 -0.07,-0.243 V 1.076 l -0.277,-1.007 -0.59,-0.66 -0.209,-0.659 -0.034,-0.104 -0.486,-0.729 -0.209,-0.313 -1.18,-1.006 -0.798,-0.347 -0.521,-0.451 -0.555,-0.243 -0.174,-0.139 -0.486,0.103 -0.59,0.174 -0.729,1.32 -0.208,1.145 -0.521,1.111 0.174,1.423 -0.139,1.423 -0.104,4.755 0.034,0.278 v 0.278 l -0.034,0.138 -0.035,0.938 0.174,1.666 0.138,0.348 v 1.11 l -0.069,0.451 0.139,0.486 0.139,0.903 -0.105,2.082 0.244,1.319 v 3.714 l -0.104,0.382 0.173,0.729 0.069,0.521 0.139,0.556 v 2.255 l 0.313,4.513 0.243,0.313 -0.035,3.852 0.139,0.382 0.034,1.77 h -0.138 l -0.07,0.173 0.035,0.279 0.243,0.728 -0.417,0.972 0.105,0.104 -0.278,1.875 0.139,2.464 -0.174,0.521 -0.173,3.263 -0.209,0.729 -0.069,0.173 -0.243,1.909 1.284,1.319 0.798,0.451 h 0.14 l 0.034,0.14 0.799,0.971 1.214,-0.208 0.625,-2.742 0.208,-4.998 0.035,-0.417 -0.069,-0.486 -0.07,-0.347 -0.138,-0.278 -0.07,-1.388 0.174,-0.903 -0.139,-2.464 -0.347,-1.632 -0.07,-2.152 0.035,-0.312 -0.07,-0.416 -0.069,-0.556 -0.069,-0.174 -0.174,-4.096 0.035,-2.88 -0.07,-0.105 0.139,-0.208 -0.277,-3.193 -0.174,-0.556 v -3.089 l -0.07,-0.348 -0.069,-0.138 -0.347,-4.824 0.104,-0.382 -0.069,-5.069 0.173,-0.381 -0.034,-2.118 0.242,-1.77 -0.069,-0.521 0.66,-2.534 0.867,0.73 0.973,1.77 v 0.729 l 0.589,0.799 0.104,0.242 0.035,0.174 -0.035,0.138 -0.104,0.174 0.139,0.659 0.798,1.666 1.181,3.367 0.104,1.25 h 0.173 l 0.625,2.638 1.77,6.005 0.348,0.66 v 0.173 l 0.277,0.521 0.208,0.521 0.973,3.055 1.214,1.041 0.208,0.346 0.452,0.279 1.25,0.867 0.555,-0.069 0.174,-0.174 0.624,-1.77 0.139,-0.868 0.243,-5.936 h -0.104 v -2.985 l -0.035,-0.416 0.035,-0.451 0.139,-0.973 -0.07,-1.526 0.243,-0.382 0.035,-0.382 0.347,-4.2 0.59,-2.083 0.556,-1.319 1.596,-2.533 0.139,-0.105 V 1.77 l 0.209,-0.278 1.249,-1.007 0.07,-0.138 z" /></g><g
           transform="translate(181.8125,37.5352)"
           id="g70"><path
             id="path72"
             style="fill:#100f0d;fill-opacity:1;fill-rule:nonzero;stroke:none"
             d="M 0,0 -0.035,0.347 -0.694,0.833 -1.18,1.284 -1.701,1.423 -3.229,1.562 -4.929,1.18 -5.519,0.937 -6.213,0.625 -6.491,0.451 -6.734,0.382 l -2.603,-1.284 -0.244,-0.279 -0.208,-0.173 -0.416,-0.139 -0.313,-0.139 -0.208,-0.208 -0.486,-0.382 -0.069,-0.069 -0.104,-0.139 -0.139,-0.138 -0.382,-0.313 -1.319,-1.527 -0.139,-0.313 -0.174,-0.52 -0.347,-0.313 -0.069,-0.278 -0.486,-1.041 -0.208,-0.174 -0.208,-0.416 -0.313,-0.52 0.069,-0.903 -0.416,-0.729 -0.139,-1.007 0.104,-1.388 0.451,-0.903 0.417,-0.242 0.347,-0.73 0.868,-0.59 0.972,-0.138 1.458,0.103 1.735,0.66 0.313,0.244 0.555,0.172 1.423,0.833 1.423,1.285 0.209,0.104 0.173,0.174 2.256,2.742 0.174,0.208 0.347,0.313 0.208,0.312 0.555,0.902 0.591,1.354 0.278,0.486 0.173,0.347 V -4.2 l 0.208,0.312 0.313,1.007 -0.035,0.347 0.104,0.174 0.139,0.208 v 1.77 z m -16.453,-6.561 -0.694,-0.346 -0.903,-1.042 -0.59,-0.313 -0.208,-0.346 -0.174,-0.382 -0.243,-0.487 -0.277,-0.277 v -0.659 l -0.035,-0.174 -0.173,-0.278 -0.278,-0.381 -0.174,-0.73 0.139,-0.312 0.173,-0.625 0.452,-0.416 -0.035,0.174 0.521,-0.035 0.277,0.138 0.313,0.348 0.104,0.382 v 0.277 l 0.069,0.174 0.452,1.318 0.173,0.487 0.243,0.381 v 0.036 l 0.139,0.172 0.104,0.348 0.208,0.59 1.041,1.561 0.278,0.591 -0.104,0.173 -0.243,0.105 -0.312,-0.105 -0.243,-0.277 z m 29.99,-7.844 0.209,-0.035 v -0.312 l -0.348,-0.243 -0.347,-0.278 -1.736,-1.18 -1.388,-0.556 -0.312,-0.069 -0.07,0.139 -0.659,0.035 -0.937,0.763 -1.146,1.771 -0.555,0.59 -0.417,1.11 -0.798,1.493 -0.243,0.312 -0.069,0.347 -0.347,0.313 -0.035,0.243 -0.209,0.59 -0.069,0.798 -0.59,1.111 -0.104,1.11 L 3.159,-6.04 2.985,-5.415 2.916,-4.79 2.43,-4.235 2.256,-4.166 2.083,-4.2 1.874,-4.443 V -4.687 H 1.77 V -4.79 l -0.173,-0.417 -1.528,-2.43 -1.423,-1.458 -0.243,-0.52 -1.666,-1.389 -0.521,-0.764 -0.798,-0.416 -0.486,-0.589 -1.249,-0.799 -0.695,-0.208 -0.347,-0.313 -0.694,-0.277 -0.208,-0.243 -0.451,-0.105 -1.216,-0.868 -0.728,-0.208 -1.146,-0.625 -2.395,-0.728 h -0.659 l -0.452,-0.313 -0.729,0.208 -1.527,0.903 -0.59,0.521 h -0.278 l -0.381,-0.209 -0.486,-0.416 -0.487,0.034 -0.277,-0.139 -0.937,0.348 -1.528,0.798 -0.52,1.042 0.208,2.186 0.208,0.278 -0.035,0.208 1.111,1.493 0.208,0.174 0.313,0.52 0.625,1.111 2.256,2.117 0.278,0.138 0.069,0.105 0.521,0.312 0.312,0.521 0.694,0.417 0.833,0.833 1.18,0.659 0.348,0.243 0.069,0.07 0.07,0.173 0.242,0.139 0.487,0.416 0.138,0.035 0.139,0.278 0.209,0.451 0.937,0.521 h 0.347 l 1.076,0.66 0.798,0.243 0.486,0.346 0.417,0.139 0.034,0.139 1.32,0.521 0.069,0.034 0.416,0.244 0.799,0.381 L -4.2,2.117 -3.714,2.395 -1.493,2.256 -0.208,1.562 0.347,1.076 0.659,0.555 H 0.902 L 0.382,1.423 0.208,2.707 -0.208,3.506 -0.798,5.137 -1.319,6.039 -2.36,6.977 -3.853,7.115 -4.443,6.733 -6.977,3.818 -7.949,2.985 -8.366,2.673 -8.643,2.638 -8.852,2.673 -9.06,2.881 v 0.174 l 0.625,0.52 0.035,0.139 0.034,0.174 0.209,0.312 0.729,0.867 0.937,0.799 0.902,1.215 3.124,2.812 0.729,0.103 0.972,0.591 0.208,0.139 0.209,0.034 0.243,-0.07 0.208,-0.208 H 0.868 L 2.221,9.094 2.812,8.157 3.575,6.248 3.853,5.936 4.721,3.471 4.755,3.193 4.894,2.776 4.998,1.666 5.311,1.041 5.276,0.694 5.45,0.174 5.519,-0.312 5.692,-0.937 6.178,-2.742 6.525,-3.229 6.595,-4.2 7.15,-5.207 l 0.07,-1.284 0.382,-0.695 0.485,-1.77 1.181,-2.568 0.416,-0.486 0.139,-0.243 0.451,-0.52 0.07,-0.695 1.596,-1.215 0.937,0.139 0.174,0.069 0.104,0.07 z" /></g><g
           transform="translate(207.082,43.332)"
           id="g74"><path
             id="path76"
             style="fill:#100f0d;fill-opacity:1;fill-rule:nonzero;stroke:none"
             d="M 0,0 0.277,0.833 -0.764,0.242 -2.5,-1.319 l -0.173,-0.729 0.069,-0.243 0.417,-0.069 0.868,0.971 0.069,0.035 0.348,0.417 z m 14.683,-10.414 h 0.52 l -0.312,-0.693 -0.174,-0.313 -0.242,-0.591 -1.007,-1.075 -0.035,-0.14 -0.59,-0.624 -3.645,-3.159 -0.52,-0.382 -0.243,-0.277 -0.695,-0.52 -0.173,-0.209 -0.209,-0.208 -0.138,-0.07 -0.243,-0.069 -1.111,-0.972 -3.402,-1.978 -1.041,-0.382 -0.521,-0.105 -0.243,-0.104 -1.11,-0.347 -0.313,-0.104 -0.902,-0.313 -2.083,-0.242 -1.701,-0.035 -1.353,0.486 -0.729,0.833 -0.487,0.347 -1.11,1.597 -0.486,2.534 0.416,1.735 -0.034,0.73 1.11,3.644 2.5,4.824 -0.66,1.181 0.035,1.353 0.729,1.285 0.972,1.319 1.214,1.354 2.291,1.943 1.25,0.834 L 0.521,2.95 0.798,3.089 2.603,4.408 2.916,4.686 3.367,4.963 5.588,6.108 8.608,7.22 9.962,7.394 11.038,7.185 11.385,7.012 12.357,6.352 12.531,4.616 12.253,3.471 10.83,0.521 10.344,-0.209 10.031,-0.486 9.615,-0.903 7.289,-3.333 6.352,-3.784 4.339,-5.276 0.277,-7.081 l -1.631,-0.382 -0.243,-0.069 -0.174,-0.035 -0.347,0.035 -0.833,0.069 -0.382,0.104 -0.069,0.555 1.042,0.625 0.833,0.833 0.798,0.243 0.555,0.452 3.124,0.554 0.938,0.313 3.054,1.666 1.111,1.285 L 8.782,0.833 8.92,1.735 8.851,3.332 7.74,4.165 6.283,4.199 5.658,3.991 4.755,3.366 4.443,3.158 4.061,2.776 3.749,2.638 2.777,1.631 1.805,0.59 1.423,0.173 0.902,-0.417 0.035,-1.25 -1.042,-2.708 -1.284,-2.985 -1.493,-3.124 -1.979,-3.715 -2.777,-4.756 -3.055,-5.381 -3.922,-6.248 -5.623,-9.823 -6.457,-12.704 v -0.694 l -0.138,-0.799 -0.139,-2.673 0.486,-1.11 0.625,-0.869 0.728,-0.694 0.764,-0.555 0.209,-0.104 0.381,-0.174 0.799,-0.173 2.985,-0.07 2.673,0.799 2.846,1.527 1.111,1.007 0.243,0.173 0.242,0.174 3.124,2.326 h 0.244 l -0.035,0.173 0.173,0.312 1.389,1.215 z" /></g><g
           transform="translate(234.7119,16.5693)"
           id="g78"><path
             id="path80"
             style="fill:#100f0d;fill-opacity:1;fill-rule:nonzero;stroke:none"
             d="M 0,0 0.694,-0.694 V -1.076 L -1.735,-0.312 -2.152,0 l -0.729,0.139 -0.312,0.312 -0.104,0.105 -0.417,0.659 -0.243,0.174 -0.174,0.173 -0.243,0.452 -0.659,0.625 -0.035,0.277 -2.013,1.249 -0.347,0.452 -0.451,1.354 0.243,1.007 -0.174,0.103 0.104,0.417 -0.069,0.069 -0.174,2.569 0.278,1.11 0.069,1.875 -0.034,0.208 0.173,0.243 0.243,1.805 -0.034,2.777 h -0.105 l -0.104,1.77 0.278,2.222 -0.209,0.486 -0.069,6.525 -0.173,0.764 0.242,1.597 0.174,4.061 -0.034,0.174 0.138,0.659 v 5.137 l 0.174,0.833 -0.243,1.319 -0.035,2.847 -0.104,0.243 -0.139,0.312 -0.104,0.278 h -0.139 l 0.07,2.43 v 0.347 l 0.208,0.763 -0.486,1.041 V 52.9 l -0.069,0.104 -0.07,0.59 -0.035,1.076 -0.069,0.59 0.034,0.174 0.209,0.312 0.139,0.173 0.937,0.973 0.694,0.104 0.451,0.138 v 0.105 l 0.174,0.034 0.278,0.035 0.242,-0.312 -0.034,-0.104 0.243,-0.799 0.139,-1.319 0.451,-1.25 v -1.666 l 0.139,-1.492 0.728,-0.903 0.799,-0.243 0.208,-0.451 -0.034,-1.423 -0.313,-0.347 0.139,-0.521 0.035,-0.173 -0.035,-0.174 -0.035,-0.139 -0.139,-0.173 -0.451,-3.992 v -1.493 l -0.347,-0.833 v -2.36 L -3.541,36.968 -3.61,36.446 v -1.215 l 0.104,-0.208 -0.069,-0.138 -0.035,-2.812 -0.069,-0.138 -0.07,-0.556 0.208,-0.035 -0.034,-1.075 -0.174,-0.522 -0.173,-3.714 0.138,-2.603 -0.173,-0.937 0.139,-1.701 -0.104,-0.521 0.173,-0.694 -0.139,-0.382 0.209,-5.589 0.486,-3.227 -0.209,-1.84 0.243,-0.728 -0.174,-0.764 0.452,-0.799 0.035,-0.556 0.034,-0.208 0.174,-0.867 0.798,-1.84 0.625,-0.486 0.59,-1.215 0.278,-0.555 z" /></g><g
           transform="translate(298.5937,51.3486)"
           id="g82"><path
             id="path84"
             style="fill:#100f0d;fill-opacity:1;fill-rule:nonzero;stroke:none"
             d="M 0,0 0.249,-1.046 0.1,-1.245 0.199,-2.59 l -0.498,-1.195 -0.099,-1.494 -0.399,-1.694 -0.647,-1.046 -0.449,-1.743 -1.593,-3.785 -1.046,-1.096 -0.498,-0.597 -0.199,-0.15 -0.249,-0.996 -0.647,-1.195 -0.997,-1.045 -0.348,-0.448 -0.1,-0.15 -0.348,-0.846 -0.997,-1.096 -0.547,-0.249 -1.246,-1.743 -0.398,-0.349 -0.249,-0.299 -0.398,-0.348 -0.498,-0.498 -0.2,-0.15 -0.348,-0.249 -0.498,-0.199 0.149,-0.448 -0.349,0.149 -0.398,-0.548 -0.199,-0.149 -0.548,-0.15 -0.648,-0.697 -0.149,-0.099 -0.598,-0.548 -1.942,-1.445 -1.494,-0.747 -1.544,-1.145 -0.547,-0.15 -4.084,-2.39 -0.349,-0.1 -0.448,-0.348 -1.245,-0.548 h -1.046 l -0.1,-0.299 -0.647,-0.05 -0.747,-0.299 -0.548,-0.05 -1.643,-0.049 -1.544,-0.399 -3.188,0.199 -1.096,0.349 -2.34,1.195 -1.744,1.146 -0.696,0.797 -0.449,0.697 -0.149,0.1 -1.046,1.793 v 1.095 l -1.046,2.192 0.1,0.249 -0.199,0.199 -0.15,0.398 -0.348,0.548 v 0.548 l -0.598,1.345 0.498,1.743 0.797,-0.299 0.747,-0.996 1.394,-2.49 0.249,-0.996 0.499,-0.349 0.248,-0.398 0.299,-0.15 0.249,-0.299 0.697,-0.896 v -0.398 l 0.299,0.049 1.942,-1.892 3.537,-1.743 0.946,-0.05 0.249,-0.1 2.341,-0.149 5.926,1.295 2.341,1.394 1.046,0.249 1.693,0.897 0.647,0.299 0.499,0.398 v 0.149 l 0.298,0.05 1.694,1.295 0.398,0.1 v 0.249 l 1.145,0.747 2.391,2.042 0.348,0.249 0.449,0.348 2.54,2.839 0.448,0.299 0.05,0.05 v 0.149 l 0.099,0.399 0.847,0.895 2.839,5.18 v 0.448 l 0.299,0.199 1.244,4.931 0.05,3.237 -0.746,2.989 -0.15,0.099 -0.398,0.648 -2.391,2.241 -0.946,0.05 -0.1,0.149 -0.099,0.1 -1.096,0.448 -4.483,-0.398 -2.091,-0.449 -2.141,-0.846 -0.648,0.199 -1.295,-0.299 -0.896,-0.697 -1.196,-0.249 -0.298,-0.299 -0.349,0.05 -3.138,-1.793 -0.697,-0.249 v -0.1 l -1.295,-0.199 v -0.199 l -2.49,-0.797 -0.498,-0.399 -3.436,-0.647 -1.245,0.05 -0.598,0.149 -0.398,-0.199 -2.74,1.245 -0.697,0.349 -0.398,0.448 v 1.046 l 0.448,1.295 0.398,0.498 0.797,1.096 0.249,0.448 1.395,2.689 2.988,4.582 0.299,0.398 0.348,0.299 -0.049,0.05 0.647,1.096 -0.149,0.049 0.199,0.299 0.299,0.1 0.548,0.996 0.199,0.349 0.149,0.049 1.992,2.639 0.299,0.847 0.597,0.448 0.2,0.299 1.942,2.64 0.05,0.349 0.896,0.896 0.15,0.349 0.597,0.498 0.598,1.046 0.249,0.348 0.548,0.498 0.398,0.648 0.2,0.05 0.597,0.946 2.142,2.988 0.448,0.448 0.349,0.448 1.743,2.54 0.647,0.648 0.349,0.697 0.348,0.348 1.245,1.544 0.349,0.299 0.149,0.1 0.548,0.896 0.1,0.15 0.249,0.299 0.348,0.547 0.498,0.249 v 0.2 l 0.449,0.647 0.348,0.498 -0.099,0.548 0.597,0.199 0.897,0.747 0.448,0.348 0.349,0.299 0.697,0.249 0.498,0.797 0.249,0.199 0.05,0.2 h 1.245 l 0.797,0.448 0.199,-0.05 0.249,-0.199 0.1,-0.349 v -0.199 l -0.349,-1.395 0.548,-1.593 1.046,-0.249 0.249,-0.698 0.099,-0.398 0.896,-0.597 0.05,-0.648 0.199,-0.398 0.449,-1.146 0.099,-0.199 0.199,-0.548 -0.448,-0.547 V 33.069 L -5.03,31.525 h -0.299 l -0.149,0.199 -3.337,0.299 -0.996,-0.697 -0.299,0.099 -0.199,-0.199 -0.697,-0.448 -3.038,-1.992 -0.498,-0.449 -0.15,-0.049 -0.448,-0.797 -0.448,-0.349 -0.249,-0.697 -1.146,-0.448 -0.896,-1.046 -2.341,-1.594 -0.548,-0.298 -0.149,-0.349 -0.249,-0.448 -0.448,-0.698 -0.349,-0.298 -0.05,-0.349 -0.299,-0.548 -0.747,-0.348 -0.298,-0.25 -0.15,-0.249 -1.096,-1.095 -0.448,-0.349 -0.548,-0.448 -0.448,-0.697 -0.747,-0.598 -1.544,-1.992 0.1,-0.249 h -0.349 l -0.199,-0.399 -0.299,-0.149 -1.145,-2.141 -0.1,-0.598 -0.149,-0.299 -0.149,-0.348 -0.349,-0.05 -0.448,-0.199 -0.847,-1.694 -0.398,-0.398 -0.249,-0.449 -0.698,-1.294 -0.299,-0.548 -0.149,-0.448 -0.598,-1.046 -0.398,-0.498 -0.847,-1.544 0.2,-0.199 -0.05,-0.249 0.05,-0.249 0.049,-0.249 1.146,-0.05 0.548,0.199 0.647,-0.149 0.399,0.1 1.095,0.249 0.449,0.099 0.199,0.15 7.47,1.793 1.594,0.697 0.348,0.099 h 0.15 l 1.544,0.698 1.046,0.149 2.191,0.897 0.846,-0.15 0.299,0.1 0.398,0.199 0.548,0.299 1.445,0.348 0.199,-0.149 2.938,0.696 0.399,-0.299 0.498,0.15 0.398,0.05 h 0.199 l 0.399,-0.2 1.494,0.2 L -5.478,6.923 -5.08,6.475 -3.735,6.126 -1.544,4.283 -0.498,2.54 -0.299,1.544 -0.05,0.946 0,0.548 Z" /></g><g
           transform="translate(323.3687,37.5352)"
           id="g86"><path
             id="path88"
             style="fill:#100f0d;fill-opacity:1;fill-rule:nonzero;stroke:none"
             d="M 0,0 -0.035,0.347 -0.694,0.833 -1.18,1.284 -1.701,1.423 -3.229,1.562 -4.929,1.18 -5.519,0.937 -6.213,0.625 -6.491,0.451 -6.734,0.382 l -2.603,-1.284 -0.244,-0.279 -0.208,-0.173 -0.416,-0.139 -0.313,-0.139 -0.208,-0.208 -0.486,-0.382 -0.069,-0.069 -0.104,-0.139 -0.139,-0.138 -0.382,-0.313 -1.319,-1.527 -0.139,-0.313 -0.174,-0.52 -0.347,-0.313 -0.069,-0.278 -0.486,-1.041 -0.208,-0.174 -0.208,-0.416 -0.313,-0.52 0.069,-0.903 -0.416,-0.729 -0.139,-1.007 0.104,-1.388 0.451,-0.903 0.417,-0.242 0.347,-0.73 0.868,-0.59 0.972,-0.138 1.458,0.103 1.735,0.66 0.313,0.244 0.555,0.172 1.423,0.833 1.423,1.285 0.209,0.104 0.173,0.174 2.256,2.742 0.174,0.208 0.347,0.313 0.208,0.312 0.555,0.902 0.591,1.354 0.278,0.486 0.173,0.347 V -4.2 l 0.208,0.312 0.313,1.007 -0.035,0.347 0.104,0.174 0.139,0.208 v 1.77 z m -16.453,-6.561 -0.694,-0.346 -0.903,-1.042 -0.59,-0.313 -0.208,-0.346 -0.174,-0.382 -0.243,-0.487 -0.277,-0.277 v -0.659 l -0.035,-0.174 -0.173,-0.278 -0.278,-0.381 -0.174,-0.73 0.139,-0.312 0.173,-0.625 0.452,-0.416 -0.035,0.174 0.521,-0.035 0.277,0.138 0.313,0.348 0.104,0.382 v 0.277 l 0.069,0.174 0.452,1.318 0.173,0.487 0.243,0.381 v 0.036 l 0.139,0.172 0.104,0.348 0.208,0.59 1.041,1.561 0.278,0.591 -0.104,0.173 -0.243,0.105 -0.312,-0.105 -0.243,-0.277 z m 29.99,-7.844 0.209,-0.035 v -0.312 l -0.348,-0.243 -0.347,-0.278 -1.736,-1.18 -1.388,-0.556 -0.312,-0.069 -0.07,0.139 -0.659,0.035 -0.937,0.763 -1.146,1.771 -0.555,0.59 -0.417,1.11 -0.798,1.493 -0.243,0.312 -0.069,0.347 -0.347,0.313 -0.035,0.243 -0.209,0.59 -0.069,0.798 -0.59,1.111 -0.104,1.11 L 3.159,-6.04 2.985,-5.415 2.916,-4.79 2.43,-4.235 2.256,-4.166 2.083,-4.2 1.874,-4.443 V -4.687 H 1.77 V -4.79 l -0.173,-0.417 -1.528,-2.43 -1.423,-1.458 -0.243,-0.52 -1.666,-1.389 -0.521,-0.764 -0.798,-0.416 -0.486,-0.589 -1.249,-0.799 -0.695,-0.208 -0.347,-0.313 -0.694,-0.277 -0.208,-0.243 -0.451,-0.105 -1.216,-0.868 -0.728,-0.208 -1.146,-0.625 -2.395,-0.728 h -0.659 l -0.452,-0.313 -0.729,0.208 -1.527,0.903 -0.59,0.521 h -0.278 l -0.381,-0.209 -0.486,-0.416 -0.487,0.034 -0.277,-0.139 -0.937,0.348 -1.528,0.798 -0.52,1.042 0.208,2.186 0.208,0.278 -0.035,0.208 1.111,1.493 0.208,0.174 0.313,0.52 0.625,1.111 2.256,2.117 0.278,0.138 0.069,0.105 0.521,0.312 0.312,0.521 0.694,0.417 0.833,0.833 1.18,0.659 0.348,0.243 0.069,0.07 0.07,0.173 0.242,0.139 0.487,0.416 0.138,0.035 0.139,0.278 0.209,0.451 0.937,0.521 h 0.347 l 1.076,0.66 0.798,0.243 0.486,0.346 0.417,0.139 0.034,0.139 1.32,0.521 0.069,0.034 0.416,0.244 0.799,0.381 L -4.2,2.117 -3.714,2.395 -1.493,2.256 -0.208,1.562 0.347,1.076 0.659,0.555 H 0.902 L 0.382,1.423 0.208,2.707 -0.208,3.506 -0.798,5.137 -1.319,6.039 -2.36,6.977 -3.853,7.115 -4.443,6.733 -6.977,3.818 -7.949,2.985 -8.366,2.673 -8.643,2.638 -8.852,2.673 -9.06,2.881 v 0.174 l 0.625,0.52 0.035,0.139 0.034,0.174 0.209,0.312 0.729,0.867 0.937,0.799 0.902,1.215 3.124,2.812 0.729,0.103 0.972,0.591 0.208,0.139 0.209,0.034 0.243,-0.07 0.208,-0.208 H 0.868 L 2.221,9.094 2.812,8.157 3.575,6.248 3.853,5.936 4.721,3.471 4.755,3.193 4.894,2.776 4.998,1.666 5.311,1.041 5.276,0.694 5.45,0.174 5.519,-0.312 5.692,-0.937 6.178,-2.742 6.525,-3.229 6.595,-4.2 7.15,-5.207 l 0.07,-1.284 0.382,-0.695 0.485,-1.77 1.181,-2.568 0.416,-0.486 0.139,-0.243 0.451,-0.52 0.07,-0.695 1.596,-1.215 0.937,0.139 0.174,0.069 0.104,0.07 z" /></g><g
           transform="translate(347.6313,16.5693)"
           id="g90"><path
             id="path92"
             style="fill:#100f0d;fill-opacity:1;fill-rule:nonzero;stroke:none"
             d="M 0,0 0.694,-0.694 V -1.076 L -1.735,-0.312 -2.152,0 l -0.729,0.139 -0.312,0.312 -0.104,0.105 -0.417,0.659 -0.243,0.174 -0.174,0.173 -0.243,0.452 -0.659,0.625 -0.035,0.277 -2.013,1.249 -0.347,0.452 -0.451,1.354 0.243,1.007 -0.174,0.103 0.104,0.417 -0.069,0.069 -0.174,2.569 0.278,1.11 0.069,1.875 -0.034,0.208 0.173,0.243 0.243,1.805 -0.034,2.777 h -0.105 l -0.104,1.77 0.278,2.222 -0.209,0.486 -0.069,6.525 -0.173,0.764 0.242,1.597 0.174,4.061 -0.034,0.174 0.138,0.659 v 5.137 l 0.174,0.833 -0.243,1.319 -0.035,2.847 -0.104,0.243 -0.139,0.312 -0.104,0.278 h -0.139 l 0.07,2.43 v 0.347 l 0.208,0.763 -0.486,1.041 V 52.9 l -0.069,0.104 -0.07,0.59 -0.035,1.076 -0.069,0.59 0.034,0.174 0.209,0.312 0.139,0.173 0.937,0.973 0.694,0.104 0.451,0.138 v 0.105 l 0.174,0.034 0.278,0.035 0.242,-0.312 -0.034,-0.104 0.243,-0.799 0.139,-1.319 0.451,-1.25 v -1.666 l 0.139,-1.492 0.728,-0.903 0.799,-0.243 0.208,-0.451 -0.034,-1.423 -0.313,-0.347 0.139,-0.521 0.035,-0.173 -0.035,-0.174 -0.035,-0.139 -0.139,-0.173 -0.451,-3.992 v -1.493 l -0.347,-0.833 v -2.36 L -3.541,36.968 -3.61,36.446 v -1.215 l 0.104,-0.208 -0.069,-0.138 -0.035,-2.812 -0.069,-0.138 -0.07,-0.556 0.208,-0.035 -0.034,-1.075 -0.174,-0.522 -0.173,-3.714 0.138,-2.603 -0.173,-0.937 0.139,-1.701 -0.104,-0.521 0.173,-0.694 -0.139,-0.382 0.209,-5.589 0.486,-3.227 -0.209,-1.84 0.243,-0.728 -0.174,-0.764 0.452,-0.799 0.035,-0.556 0.034,-0.208 0.174,-0.867 0.798,-1.84 0.625,-0.486 0.59,-1.215 0.278,-0.555 z" /></g><g
           transform="translate(354.5391,30.2803)"
           id="g94"><path
             id="path96"
             style="fill:#100f0d;fill-opacity:1;fill-rule:nonzero;stroke:none"
             d="m 0,0 -0.104,-1.11 0.208,-0.105 v -0.104 l 1.562,0.173 1.111,0.66 0.729,0.139 0.069,-0.035 0.313,0.348 H 4.13 l 0.591,0.555 1.111,0.555 1.041,0.729 1.84,1.701 0.277,0.139 0.209,0.208 0.346,0.173 1.215,1.146 0.244,0.208 0.242,0.278 0.104,0.07 0.138,0.173 0.035,0.07 0.174,0.069 0.348,0.313 1.492,1.527 0.383,0.485 0.068,0.243 h 0.209 l 0.658,0.869 0.209,0.103 0.209,0.174 0.139,0.035 0.451,0.555 0.069,0.243 -0.069,0.382 -0.174,0.243 -0.244,0.208 -0.242,0.312 -0.139,0.105 -0.416,0.208 -0.347,0.451 -0.487,0.139 H 13.641 L 13.502,12.53 12.773,12.704 11.594,12.565 9.303,11.42 7.74,10.136 5.832,9.025 5.692,8.678 5.103,8.227 4.963,7.88 4.686,7.845 4.478,7.81 4.374,7.671 4.27,7.463 3.957,7.289 3.193,6.144 3.02,5.797 2.742,5.52 2.291,5.033 2.013,4.339 1.944,3.957 1.77,3.818 0.764,2.152 Z m -0.903,-5.346 -0.139,-1.458 0.174,-1.215 0.625,-1.179 0.764,-0.695 0.173,-0.069 0.347,-0.243 h 1.736 l 0.382,-0.139 2.464,0.938 0.522,0.034 1.873,1.145 0.244,0.208 0.242,0.209 0.035,0.139 0.971,0.798 0.07,0.069 0.139,0.313 1.631,1.493 0.66,0.867 0.347,0.451 0.174,0.313 1.006,1.319 0.416,0.417 -0.033,0.069 0.103,0.035 0.174,0.104 0.139,0.313 0.174,0.659 0.345,0.277 0.28,0.799 0.832,1.007 0.07,0.312 -0.035,0.139 -0.104,0.243 0.172,0.07 0.383,1.318 -0.174,1.007 -0.07,3.401 L 15.932,8.4 15.863,8.816 15.586,8.747 15.689,9.025 15.586,9.06 15.445,8.816 15.064,8.365 14.891,8.296 14.543,7.914 12.252,5.38 10.898,4.305 7.844,1.25 7.221,0.833 6.664,0.277 6.596,0.139 3.506,-2.152 2.846,-2.638 2.638,-2.776 2.291,-3.055 2.117,-3.298 1.006,-4.165 0.069,-4.582 -0.729,-4.964 -0.833,-5.103 Z m -5.137,1.806 -0.173,0.624 0.173,0.312 -0.139,0.382 0.174,0.209 0.035,0.208 h 0.069 v 0.243 l 0.764,1.18 6.352,7.324 0.208,-0.069 0.07,0.104 1.423,2.152 0.902,0.902 0.174,0.243 0.278,0.382 2.291,2.847 2.117,2.117 1.215,0.659 L 9.822,15.272 9.268,14.267 8.746,13.988 8.4,13.606 l -0.277,-0.52 0.139,-0.313 0.103,-0.034 0.174,0.139 0.104,-0.035 0.277,0.417 4.305,2.499 h 0.625 l 0.763,0.417 1.145,-0.14 0.383,-0.034 0.312,-0.105 0.174,-0.034 0.174,0.034 0.242,0.348 0.035,0.208 v 0.105 l -0.174,1.041 0.069,1.319 -0.139,0.103 -0.033,1.632 0.207,0.972 -0.069,0.625 v 0.208 l -0.07,1.041 0.104,-0.034 0.07,0.139 -0.035,2.013 -0.069,0.173 h 0.069 l 0.209,0.66 -0.139,1.7 0.068,2.465 -0.103,0.139 0.242,0.903 0.209,2.36 0.07,0.173 h 0.139 l 0.381,2.916 -0.104,1.493 v 0.763 l 0.104,1.007 0.035,0.694 0.277,0.694 0.729,0.382 0.383,0.104 0.486,0.139 0.313,-0.034 1.283,0.971 0.728,0.278 0.661,-0.382 0.173,-0.833 -0.244,-0.416 0.244,-0.625 -0.138,-0.521 -0.071,-0.347 -0.138,-0.382 -0.104,-0.278 0.035,-0.416 -0.625,-2.083 -0.035,-0.347 v -0.104 l 0.139,-0.486 -0.278,-1.145 0.104,-0.66 -0.139,-0.278 -0.209,-0.555 0.071,-1.527 0.07,-0.278 v -0.729 l -0.07,-0.833 0.103,-0.208 0.174,-0.174 -0.068,-0.902 0.103,-0.173 0.035,-0.417 0.207,-0.417 0.139,-1.249 -0.242,-0.694 -0.242,-0.66 v -0.347 l -0.036,-0.486 0.036,-0.764 -0.59,-1.075 0.138,-0.313 -0.138,-1.84 -0.938,-5.345 0.174,-3.714 -0.105,-1.042 0.416,-7.463 0.244,-0.069 0.035,-0.555 0.103,-1.424 0.729,-3.748 0.313,-1.042 0.312,-0.347 -0.068,-0.312 0.381,-0.625 0.035,-0.174 0.103,-0.416 1.631,-3.159 -0.033,-0.312 -0.313,-0.347 -0.347,-0.105 -0.209,0.035 -0.174,0.105 -0.867,0.728 -1.25,-0.451 -0.729,0.59 -0.207,0.625 -0.279,0.208 -0.346,0.833 -0.279,0.069 -0.278,0.209 -0.207,0.382 -0.382,0.521 -0.069,0.52 -0.174,0.243 -0.695,1.215 -0.207,0.347 h -0.07 l -0.278,0.694 -0.451,1.007 0.035,0.104 0.069,0.035 -0.278,0.243 -0.173,0.347 L 15.898,-1.11 15.586,-1.631 15.377,-1.874 15.307,-2.117 14.994,-2.568 14.961,-2.673 14.787,-2.776 14.613,-3.089 13.502,-4.651 9.615,-8.886 8.539,-9.372 5.692,-12.045 H 5.588 L 5.207,-12.253 H 4.929 l -0.104,-0.139 -0.139,-0.069 -0.278,-0.278 -0.347,-0.242 -0.278,-0.105 -1.562,-0.625 -1.145,-0.312 -1.388,0.243 -1.459,0.555 -0.589,0.66 -0.799,1.596 -0.659,2.673 0.208,1.319 -0.278,0.695 -0.034,1.318 -1.32,0.556 -0.416,0.52 z" /></g><g
           transform="translate(404.2793,37.5352)"
           id="g98"><path
             id="path100"
             style="fill:#100f0d;fill-opacity:1;fill-rule:nonzero;stroke:none"
             d="M 0,0 -0.034,0.347 -0.694,0.833 -1.18,1.284 -1.7,1.423 -3.228,1.562 -4.929,1.18 -5.519,0.937 -6.213,0.625 -6.49,0.451 -6.733,0.382 -9.337,-0.902 -9.58,-1.181 l -0.208,-0.173 -0.417,-0.139 -0.313,-0.139 -0.208,-0.208 -0.485,-0.382 -0.069,-0.069 -0.105,-0.139 -0.138,-0.138 -0.382,-0.313 -1.32,-1.527 -0.138,-0.313 -0.174,-0.52 -0.347,-0.313 -0.069,-0.278 -0.486,-1.041 -0.208,-0.174 -0.209,-0.416 -0.312,-0.52 0.069,-0.903 -0.417,-0.729 -0.138,-1.007 0.104,-1.388 0.451,-0.903 0.416,-0.242 0.348,-0.73 0.867,-0.59 0.972,-0.138 1.458,0.103 1.736,0.66 0.312,0.244 0.555,0.172 1.423,0.833 1.424,1.285 0.208,0.104 0.174,0.174 2.256,2.742 0.174,0.208 0.346,0.313 0.209,0.312 0.555,0.902 0.59,1.354 0.278,0.486 0.174,0.347 V -4.2 l 0.208,0.312 0.312,1.007 -0.035,0.347 0.105,0.174 0.138,0.208 v 1.77 z m -16.453,-6.561 -0.693,-0.346 -0.904,-1.042 -0.59,-0.313 -0.208,-0.346 -0.173,-0.382 -0.244,-0.487 -0.277,-0.277 v -0.659 l -0.035,-0.174 -0.173,-0.278 -0.278,-0.381 -0.173,-0.73 0.139,-0.312 0.173,-0.625 0.452,-0.416 -0.036,0.174 0.521,-0.035 0.278,0.138 0.313,0.348 0.103,0.382 v 0.277 l 0.07,0.174 0.451,1.318 0.174,0.487 0.243,0.381 v 0.036 l 0.138,0.172 0.105,0.348 0.208,0.59 1.041,1.561 0.278,0.591 -0.104,0.173 -0.243,0.105 -0.313,-0.105 -0.243,-0.277 z m 29.991,-7.844 0.208,-0.035 v -0.312 l -0.348,-0.243 -0.346,-0.278 -1.736,-1.18 -1.388,-0.556 -0.313,-0.069 -0.069,0.139 -0.659,0.035 -0.938,0.763 -1.145,1.771 -0.556,0.59 -0.416,1.11 -0.799,1.493 -0.243,0.312 -0.069,0.347 -0.347,0.313 -0.035,0.243 -0.208,0.59 -0.069,0.798 -0.59,1.111 -0.105,1.11 L 3.159,-6.04 2.985,-5.415 2.916,-4.79 2.43,-4.235 2.257,-4.166 2.083,-4.2 1.875,-4.443 V -4.687 H 1.771 V -4.79 l -0.174,-0.417 -1.528,-2.43 -1.423,-1.458 -0.243,-0.52 -1.666,-1.389 -0.52,-0.764 -0.798,-0.416 -0.486,-0.589 -1.25,-0.799 -0.695,-0.208 -0.346,-0.313 -0.695,-0.277 -0.208,-0.243 -0.451,-0.105 -1.215,-0.868 -0.729,-0.208 -1.146,-0.625 -2.394,-0.728 h -0.66 l -0.452,-0.313 -0.728,0.208 -1.527,0.903 -0.59,0.521 h -0.279 l -0.381,-0.209 -0.486,-0.416 -0.486,0.034 -0.277,-0.139 -0.938,0.348 -1.527,0.798 -0.521,1.042 0.208,2.186 0.209,0.278 -0.035,0.208 1.11,1.493 0.209,0.174 0.313,0.52 0.624,1.111 2.257,2.117 0.277,0.138 0.069,0.105 0.521,0.312 0.312,0.521 0.695,0.417 0.833,0.833 1.18,0.659 0.347,0.243 0.069,0.07 0.07,0.173 0.243,0.139 0.486,0.416 0.139,0.035 0.139,0.278 0.208,0.451 0.937,0.521 h 0.348 l 1.075,0.66 0.799,0.243 0.486,0.346 0.416,0.139 0.035,0.139 1.319,0.521 0.069,0.034 0.417,0.244 0.798,0.381 1.667,0.382 0.485,0.278 L -1.492,2.256 -0.208,1.562 0.348,1.076 0.66,0.555 H 0.902 L 0.382,1.423 0.209,2.707 -0.208,3.506 -0.798,5.137 -1.318,6.039 -2.36,6.977 -3.853,7.115 -4.442,6.733 -6.977,3.818 -7.948,2.985 -8.365,2.673 -8.643,2.638 -8.851,2.673 -9.06,2.881 v 0.174 l 0.625,0.52 0.036,0.139 0.034,0.174 0.208,0.312 0.729,0.867 0.938,0.799 0.902,1.215 3.124,2.812 0.729,0.103 0.971,0.591 0.209,0.139 0.208,0.034 0.243,-0.07 0.208,-0.208 H 0.868 L 2.222,9.094 2.812,8.157 3.575,6.248 3.854,5.936 4.721,3.471 4.756,3.193 4.895,2.776 4.999,1.666 5.312,1.041 5.276,0.694 5.45,0.174 5.52,-0.312 5.693,-0.937 6.179,-2.742 6.526,-3.229 6.596,-4.2 7.15,-5.207 l 0.071,-1.284 0.381,-0.695 0.486,-1.77 1.181,-2.568 0.416,-0.486 0.138,-0.243 0.451,-0.52 0.07,-0.695 1.596,-1.215 0.938,0.139 0.174,0.069 0.104,0.07 z" /></g><g
           transform="translate(446.21,19.5898)"
           id="g102"><path
             id="path104"
             style="fill:#100f0d;fill-opacity:1;fill-rule:nonzero;stroke:none"
             d="m 0,0 0.312,-0.348 -0.208,-0.034 0.174,-0.07 -0.347,-0.242 h -0.452 l -0.52,0.485 -0.625,0.243 -0.659,0.833 -0.764,0.521 -0.833,0.312 -0.486,0.659 -1.631,1.112 -0.139,0.346 -0.07,0.036 0.174,0.138 -0.278,1.354 -0.486,0.694 -0.103,1.111 v 0.521 l 0.103,0.382 -0.069,0.485 -0.659,2.36 -0.382,2.119 0.069,0.416 -0.069,0.763 -0.208,1.25 0.277,7.741 -0.139,1.422 -0.278,0.764 -0.728,-0.972 -1.666,-3.957 -0.208,-0.346 -0.209,-0.348 -0.486,-0.902 -0.243,-0.487 0.208,-0.173 -2.742,-4.86 -0.069,-0.173 -0.347,-0.868 -0.694,-1.319 -0.105,-0.07 V 10.621 L -15.654,10.274 -16.73,8.607 -16.8,8.538 -16.938,8.261 -17.286,7.81 -17.702,6.699 -17.841,6.664 -18.292,5.727 -18.64,5.449 -18.848,4.442 -19.889,2.533 -20.514,1.839 -21.208,1.77 -21.451,1.423 -22.284,0.867 -23.325,0.972 -23.568,0.867 -23.707,0.833 h -0.174 l -0.382,0.069 -0.312,0.278 v 0.346 l -0.174,0.904 -0.277,3.575 0.208,0.034 -0.173,0.348 0.103,0.59 -0.034,1.943 -0.348,1.007 0.209,1.076 -0.278,1.735 0.035,1.284 0.034,0.348 v 0.764 l 0.07,0.382 0.209,2.499 -0.313,1.076 0.07,0.243 0.173,1.77 -0.139,0.451 0.174,0.382 -0.174,1.042 0.104,5.553 0.105,0.07 0.242,0.902 0.556,0.486 3.575,0.798 0.451,-0.486 0.139,-0.867 -0.034,-1.25 -0.07,-0.695 0.07,-0.138 -0.209,-0.313 -0.381,-1.284 -0.209,-0.625 -0.173,-0.521 -0.105,-0.277 -0.312,-3.332 -0.243,-0.833 -0.104,-1.597 -0.104,-0.243 -0.105,-0.348 0.035,-0.138 -0.069,-1.458 0.347,-5.485 -0.208,-0.902 0.104,-0.174 V 8.92 l 0.104,-0.104 0.139,-1.527 -0.035,-0.417 0.105,-0.208 0.312,-0.208 0.486,-0.035 0.902,0.52 0.278,0.487 0.139,0.208 0.139,0.763 0.798,0.833 1.041,1.702 0.035,0.243 0.069,0.069 1.215,1.562 0.417,1.319 1.145,2.013 0.729,0.868 1.007,2.395 0.035,0.07 0.208,0.381 0.277,0.868 0.105,0.243 0.312,0.347 0.347,0.382 0.174,0.555 0.486,1.597 0.659,1.424 1.007,3.124 0.867,1.492 1.875,0.937 0.277,0.034 0.382,0.105 1.458,0.243 0.139,-1.076 -0.208,-0.348 -0.069,-0.242 0.069,-0.312 0.416,-2.673 -0.069,-0.209 -0.035,-0.659 -0.312,-0.764 0.208,-2.95 L -4.373,21 v -0.556 l -0.069,-0.173 -0.036,-1.18 0.417,-1.424 0.521,-5.692 0.52,-3.471 0.174,-0.59 0.139,-0.903 0.069,-1.354 0.243,-0.694 0.278,-0.521 0.243,-0.451 0.208,-0.52 0.591,-1.423 z m -2.707,40.403 0.277,-0.139 -0.103,-0.382 -0.973,-1.111 -0.173,-0.138 -0.138,-0.139 -0.938,-1.076 -2.291,-1.458 -1.527,-0.625 -1.18,-0.139 -2.222,0.625 -0.104,0.105 -0.208,0.208 -2.916,1.561 -2.291,0.14 -1.7,-0.243 -4.166,-1.284 -1.041,-0.591 -0.556,-0.208 -0.139,0.035 -0.138,0.139 -0.105,0.173 1.111,1.145 1.215,0.937 0.139,0.174 0.347,0.347 1.006,0.278 0.209,0.416 0.208,0.07 0.139,0.035 0.139,0.069 1.284,0.764 0.833,0.208 v 0.104 l 0.174,0.07 0.52,0.208 2.535,0.555 2.012,-0.034 0.07,-0.139 0.486,-0.035 1.284,-0.695 0.417,-0.034 0.208,-0.104 v -0.139 l 0.347,-0.069 0.799,-0.626 1.735,-0.624 1.041,0.173 0.66,-0.069 2.325,0.694 z" /></g><g
           transform="translate(467.6621,37.5352)"
           id="g106"><path
             id="path108"
             style="fill:#100f0d;fill-opacity:1;fill-rule:nonzero;stroke:none"
             d="M 0,0 -0.034,0.347 -0.694,0.833 -1.18,1.284 -1.7,1.423 -3.228,1.562 -4.929,1.18 -5.519,0.937 -6.213,0.625 -6.49,0.451 -6.733,0.382 -9.337,-0.902 -9.58,-1.181 l -0.208,-0.173 -0.417,-0.139 -0.313,-0.139 -0.208,-0.208 -0.485,-0.382 -0.069,-0.069 -0.105,-0.139 -0.138,-0.138 -0.382,-0.313 -1.32,-1.527 -0.138,-0.313 -0.174,-0.52 -0.347,-0.313 -0.069,-0.278 -0.486,-1.041 -0.208,-0.174 -0.209,-0.416 -0.312,-0.52 0.069,-0.903 -0.417,-0.729 -0.138,-1.007 0.104,-1.388 0.451,-0.903 0.416,-0.242 0.348,-0.73 0.867,-0.59 0.972,-0.138 1.458,0.103 1.736,0.66 0.312,0.244 0.555,0.172 1.423,0.833 1.424,1.285 0.208,0.104 0.174,0.174 2.256,2.742 0.174,0.208 0.346,0.313 0.209,0.312 0.555,0.902 0.59,1.354 0.278,0.486 0.174,0.347 V -4.2 l 0.208,0.312 0.312,1.007 -0.035,0.347 0.105,0.174 0.138,0.208 v 1.77 z m -16.453,-6.561 -0.693,-0.346 -0.904,-1.042 -0.59,-0.313 -0.208,-0.346 -0.173,-0.382 -0.244,-0.487 -0.277,-0.277 v -0.659 l -0.035,-0.174 -0.173,-0.278 -0.278,-0.381 -0.173,-0.73 0.139,-0.312 0.173,-0.625 0.452,-0.416 -0.036,0.174 0.521,-0.035 0.278,0.138 0.313,0.348 0.103,0.382 v 0.277 l 0.07,0.174 0.451,1.318 0.174,0.487 0.243,0.381 v 0.036 l 0.138,0.172 0.105,0.348 0.208,0.59 1.041,1.561 0.278,0.591 -0.104,0.173 -0.243,0.105 -0.313,-0.105 -0.243,-0.277 z m 29.991,-7.844 0.208,-0.035 v -0.312 l -0.348,-0.243 -0.346,-0.278 -1.736,-1.18 -1.388,-0.556 -0.313,-0.069 -0.069,0.139 -0.659,0.035 -0.938,0.763 -1.145,1.771 -0.556,0.59 -0.416,1.11 -0.799,1.493 -0.243,0.312 -0.069,0.347 -0.347,0.313 -0.035,0.243 -0.208,0.59 -0.069,0.798 -0.59,1.111 -0.105,1.11 L 3.159,-6.04 2.985,-5.415 2.916,-4.79 2.43,-4.235 2.257,-4.166 2.083,-4.2 1.875,-4.443 V -4.687 H 1.771 V -4.79 l -0.174,-0.417 -1.528,-2.43 -1.423,-1.458 -0.243,-0.52 -1.666,-1.389 -0.52,-0.764 -0.798,-0.416 -0.486,-0.589 -1.25,-0.799 -0.695,-0.208 -0.346,-0.313 -0.695,-0.277 -0.208,-0.243 -0.451,-0.105 -1.215,-0.868 -0.729,-0.208 -1.146,-0.625 -2.394,-0.728 h -0.66 l -0.452,-0.313 -0.728,0.208 -1.527,0.903 -0.59,0.521 h -0.279 l -0.381,-0.209 -0.486,-0.416 -0.486,0.034 -0.277,-0.139 -0.938,0.348 -1.527,0.798 -0.521,1.042 0.208,2.186 0.209,0.278 -0.035,0.208 1.11,1.493 0.209,0.174 0.313,0.52 0.624,1.111 2.257,2.117 0.277,0.138 0.069,0.105 0.521,0.312 0.312,0.521 0.695,0.417 0.833,0.833 1.18,0.659 0.347,0.243 0.069,0.07 0.07,0.173 0.243,0.139 0.486,0.416 0.139,0.035 0.139,0.278 0.208,0.451 0.937,0.521 h 0.348 l 1.075,0.66 0.799,0.243 0.486,0.346 0.416,0.139 0.035,0.139 1.319,0.521 0.069,0.034 0.417,0.244 0.798,0.381 1.667,0.382 0.485,0.278 L -1.492,2.256 -0.208,1.562 0.348,1.076 0.66,0.555 H 0.902 L 0.382,1.423 0.209,2.707 -0.208,3.506 -0.798,5.137 -1.318,6.039 -2.36,6.977 -3.853,7.115 -4.442,6.733 -6.977,3.818 -7.948,2.985 -8.365,2.673 -8.643,2.638 -8.851,2.673 -9.06,2.881 v 0.174 l 0.625,0.52 0.036,0.139 0.034,0.174 0.208,0.312 0.729,0.867 0.938,0.799 0.902,1.215 3.124,2.812 0.729,0.103 0.971,0.591 0.209,0.139 0.208,0.034 0.243,-0.07 0.208,-0.208 H 0.868 L 2.222,9.094 2.812,8.157 3.575,6.248 3.854,5.936 4.721,3.471 4.756,3.193 4.895,2.776 4.999,1.666 5.312,1.041 5.276,0.694 5.45,0.174 5.52,-0.312 5.693,-0.937 6.179,-2.742 6.526,-3.229 6.596,-4.2 7.15,-5.207 l 0.071,-1.284 0.381,-0.695 0.486,-1.77 1.181,-2.568 0.416,-0.486 0.138,-0.243 0.451,-0.52 0.07,-0.695 1.596,-1.215 0.938,0.139 0.174,0.069 0.104,0.07 z" /></g></g></g></g></svg>